<svg xmlns="http://www.w3.org/2000/svg" viewBox="0 0 127.24 85.59"><defs><style>.cls-1{fill:#7ac943;}.cls-2{fill:#ff931e;}</style></defs><g id="Layer_2" data-name="Layer 2"><g id="Layer_2-2" data-name="Layer 2"><path class="cls-1" d="M49.13,42.12,73,78.79a4.4,4.4,0,0,1-3.69,6.8h-17a4.38,4.38,0,0,1-3.74-2.1L26.68,47.92Z"/><path class="cls-1" d="M67.24,60.19l8.25,12.17A4.4,4.4,0,0,0,83,72L98.39,43.57,73.76,42.12,67,55.76A4.37,4.37,0,0,0,67.24,60.19Z"/><path class="cls-2" d="M125.69,50,69.5,2.16a9.08,9.08,0,0,0-11.76,0L1.55,50a4.32,4.32,0,0,0,4,7.45L63.62,40.87l58.09,16.54A4.32,4.32,0,0,0,125.69,50Z"/></g></g></svg>