<svg xmlns="http://www.w3.org/2000/svg" viewBox="0 0 616.58 85.59"><defs><style>.cls-1{fill:#7ac943;}.cls-2{fill:#ff931e;}</style></defs><g id="Layer_2" data-name="Layer 2"><g id="Layer_2-2" data-name="Layer 2"><path class="cls-1" d="M141.85,27.69h13.94L171.4,72h.15l15.21-44.28h13.78V84.24h-9.42V40.6H191L175.28,84.24h-8.16L151.44,40.6h-.16V84.24h-9.43Z"/><path class="cls-1" d="M225.65,27.69h10.53L258,84.24H247.35l-5.31-15H219.47l-5.31,15H204Zm-3.49,34.06h17.27L231,37.43h-.23Z"/><path class="cls-1" d="M261.45,27.69h27q9.35,0,14,4T307.14,43A16.46,16.46,0,0,1,306,49.67,14.66,14.66,0,0,1,303.19,54a10.8,10.8,0,0,1-3.13,2.33,22.1,22.1,0,0,1-2.26.95v.16a10.09,10.09,0,0,1,2.73.8,8,8,0,0,1,2.73,2,10.91,10.91,0,0,1,2.1,3.61,15.77,15.77,0,0,1,.83,5.54,49.38,49.38,0,0,0,.76,9.07q.75,4.08,2.33,5.82H298.67a9.18,9.18,0,0,1-1.31-4c-.13-1.47-.19-2.9-.19-4.27a40.49,40.49,0,0,0-.48-6.7A11.8,11.8,0,0,0,295,64.56a7.42,7.42,0,0,0-3.45-2.73,15.19,15.19,0,0,0-5.58-.87H271.35V84.24h-9.9Zm9.9,25.74h16.23q4.76,0,7.21-2.25c1.64-1.51,2.45-3.77,2.45-6.78a10.42,10.42,0,0,0-.79-4.39,6.31,6.31,0,0,0-2.18-2.65,7.83,7.83,0,0,0-3.16-1.27,21.2,21.2,0,0,0-3.69-.32H271.35Z"/><path class="cls-1" d="M364.64,84.24h-6.33l-1.51-6.65a23.51,23.51,0,0,1-7.92,6.26,22.43,22.43,0,0,1-9.11,1.74,26.61,26.61,0,0,1-11.36-2.34,24.9,24.9,0,0,1-8.51-6.37,28.5,28.5,0,0,1-5.35-9.43,36.14,36.14,0,0,1,0-22.89,28.35,28.35,0,0,1,5.35-9.42,25.42,25.42,0,0,1,8.51-6.42,26.33,26.33,0,0,1,11.36-2.37,31.11,31.11,0,0,1,8.76,1.22,23.37,23.37,0,0,1,7.4,3.65,20.17,20.17,0,0,1,5.39,6.06A21.26,21.26,0,0,1,364,45.67h-9.66a12.38,12.38,0,0,0-1.71-4.87,12.25,12.25,0,0,0-3.28-3.52,14.28,14.28,0,0,0-4.44-2.14,18.16,18.16,0,0,0-5.15-.72,15.81,15.81,0,0,0-7.8,1.83,15.15,15.15,0,0,0-5.34,4.87,21.76,21.76,0,0,0-3.05,6.93,32.18,32.18,0,0,0,0,15.84,21.76,21.76,0,0,0,3.05,6.93A15.34,15.34,0,0,0,332,75.69a15.92,15.92,0,0,0,7.8,1.82,18.61,18.61,0,0,0,6.74-1,13.34,13.34,0,0,0,4.95-3.09,13.06,13.06,0,0,0,3.05-5A21.29,21.29,0,0,0,355.62,62H340.57V54.46h24.07Z"/><path class="cls-1" d="M373.51,27.69h9.9V84.24h-9.9Z"/><path class="cls-1" d="M393.23,27.69h10.46l25.82,41.66h.16V27.69h9.42V84.24H428.64L402.9,42.66h-.24V84.24h-9.43Z"/><path class="cls-2" d="M463.64,27.69h45.78v8.56h-18v48h-9.9v-48h-17.9Z"/><path class="cls-2" d="M538.17,26.35a26.4,26.4,0,0,1,11.37,2.37,25.42,25.42,0,0,1,8.51,6.42,28.7,28.7,0,0,1,5.35,9.42,36.14,36.14,0,0,1,0,22.89,28.85,28.85,0,0,1-5.35,9.43,24.9,24.9,0,0,1-8.51,6.37,28.77,28.77,0,0,1-22.73,0,24.85,24.85,0,0,1-8.52-6.37,28.67,28.67,0,0,1-5.35-9.43,36.14,36.14,0,0,1,0-22.89,28.53,28.53,0,0,1,5.35-9.42,25.36,25.36,0,0,1,8.52-6.42A26.33,26.33,0,0,1,538.17,26.35Zm0,8.07a15.78,15.78,0,0,0-7.8,1.83A15.27,15.27,0,0,0,525,41.12a22,22,0,0,0-3,6.93,32.18,32.18,0,0,0,0,15.84,22,22,0,0,0,3,6.93,15.46,15.46,0,0,0,5.35,4.87,17.62,17.62,0,0,0,15.6,0,15.46,15.46,0,0,0,5.35-4.87,22,22,0,0,0,3-6.93,32.17,32.17,0,0,0,0-15.84,22,22,0,0,0-3-6.93A15.27,15.27,0,0,0,546,36.25,15.78,15.78,0,0,0,538.17,34.42Z"/><path class="cls-2" d="M572.39,27.69h24.94a23.7,23.7,0,0,1,9.82,1.74A15.55,15.55,0,0,1,613,33.79a14.8,14.8,0,0,1,2.82,5.7,24.31,24.31,0,0,1,.75,5.71,23.78,23.78,0,0,1-.75,5.66A14.85,14.85,0,0,1,613,56.52a15.18,15.18,0,0,1-5.86,4.32,24.25,24.25,0,0,1-9.82,1.7H582.28v21.7h-9.89Zm9.89,26.77h14.5a13.13,13.13,0,0,0,3.4-.47,9.65,9.65,0,0,0,3.21-1.55,7.87,7.87,0,0,0,2.38-2.85,9.88,9.88,0,0,0,.91-4.47,11.76,11.76,0,0,0-.79-4.6,7.35,7.35,0,0,0-2.14-2.89,7.61,7.61,0,0,0-3.09-1.46,16.38,16.38,0,0,0-3.72-.4H582.28Z"/><path class="cls-1" d="M49.13,42.12,73,78.79a4.4,4.4,0,0,1-3.69,6.8h-17a4.38,4.38,0,0,1-3.74-2.1L26.68,47.92Z"/><path class="cls-1" d="M67.24,60.19l8.25,12.17A4.4,4.4,0,0,0,83,72L98.39,43.57,73.76,42.12,67,55.76A4.37,4.37,0,0,0,67.24,60.19Z"/><path class="cls-2" d="M125.69,50,69.5,2.16a9.08,9.08,0,0,0-11.76,0L1.55,50a4.32,4.32,0,0,0,4,7.45L63.62,40.87l58.09,16.54A4.32,4.32,0,0,0,125.69,50Z"/></g></g></svg>